#!OML:ASF G:\ViconDB\ViconDB\414\test\team2\shane.ASF
:FULLY-SPECIFIED
:DEGREES
147
root 1.80064 16.6727 1.58419 -8.96651 -7.207 -4.1663
lowerback 9.2926 5.17493 5.64745
upperback 1.82594 7.40293 -0.708625
thorax -2.46578 3.65798 -4.66522
lowerneck -14.6117 -7.47029 -8.30076
upperneck 20.1814 -11.0226 11.1247
head 9.92314 -4.61058 3.77265
rclavicle -8.13029e-014 1.90833e-014
rhumerus -24.7744 26.3494 -94.1411
rradius 80.0208
rwrist 29.361
rhand -41.5182 -18.7187
rfingers 7.12502
rthumb -14.431 -48.197
lclavicle -8.13029e-014 1.90833e-014
lhumerus -49.8937 -8.9537 66.9027
lradius 14.8291
lwrist -24.6616
lhand -37.1085 7.24602
lfingers 7.12502
lthumb -10.1793 36.9798
rfemur 19.6796 -7.58548 11.9715
rtibia 46.899
rfoot 7.4809 17.1194
rtoes -16.8658
lfemur -10.0127 12.3034 -13.1891
ltibia 37.2615
lfoot -23.4011 -13.6372
ltoes -5.03646
148
root 1.79888 16.7083 1.78677 -8.98315 -7.03362 -3.78781
lowerback 9.19946 4.9273 4.80547
upperback 1.89661 6.98747 -0.641292
thorax -2.49974 3.45524 -4.08735
lowerneck -14.6873 -7.17741 -8.27029
upperneck 20.2589 -10.5552 10.8712
head 9.89405 -4.41494 3.74805
rclavicle 5.28643e-014 3.18055e-015
rhumerus -26.4637 26.8748 -94.7365
rradius 77.5489
rwrist 28.4264
rhand -41.1807 -17.6579
rfingers 7.12502
rthumb -14.1057 -47.1592
lclavicle 5.28643e-014 3.18055e-015
lhumerus -48.8417 -8.26122 68.737
lradius 14.9143
lwrist -25.5354
lhand -37.3339 7.12974
lfingers 7.12502
lthumb -10.3968 36.8527
rfemur 17.7277 -7.90148 11.2432
rtibia 50.1276
rfoot 4.50499 15.2488
rtoes -19.0379
lfemur -8.93444 12.2467 -13.5834
ltibia 36.5656
lfoot -23.5385 -13.6752
ltoes -4.86201
149
root 1.81944 16.7293 1.97862 -9.21815 -6.58348 -4.03078
lowerback 9.45968 4.49622 5.07418
upperback 2.01656 6.45316 -0.549506
thorax -2.55331 3.18776 -4.11162
lowerneck -14.6826 -6.9374 -8.32351
upperneck 20.2487 -10.1876 10.8168
head 9.8482 -4.25574 3.79318
rclavicle -6.01386e-014 -6.36111e-015
rhumerus -28.1502 27.382 -95.213
rradius 75.1659
rwrist 27.9499
rhand -41.0496 -18.1786
rfingers 7.12502
rthumb -13.9794 -47.6886
lclavicle -6.01386e-014 -6.36111e-015
lhumerus -47.6941 -8.57721 71.2648
lradius 15.2924
lwrist -24.5615
lhand -37.3244 7.07801
lfingers 7.12502
lthumb -10.3875 36.8014
rfemur 16.1307 -8.62547 11.0272
rtibia 52.9898
rfoot 1.87281 14.4918
rtoes -21.1927
lfemur -7.63594 11.7122 -13.3895
ltibia 35.8808
lfoot -23.724 -13.5476
ltoes -4.77376
150
root 1.82378 16.7475 2.17944 -9.3919 -6.2597 -3.78023
lowerback 9.31937 4.18358 4.44459
upperback 2.22608 5.969 -0.401194
thorax -2.38963 2.95821 -3.54312
lowerneck -14.7864 -6.64473 -8.50646
upperneck 20.2862 -9.69844 10.713
head 9.83009 -4.05047 3.85811
rclavicle 2.96872e-014 5.56597e-015
rhumerus -29.7213 27.9112 -95.5058
rradius 72.582
rwrist 27.4878
rhand -41.4413 -18.9303
rfingers 7.12502
rthumb -14.3569 -48.4138
lclavicle 2.96872e-014 5.56597e-015
lhumerus -46.1851 -7.47235 72.8058
lradius 15.2193
lwrist -26.0724
lhand -38.0851 6.65614
lfingers 7.12502
lthumb -11.1214 36.3414
rfemur 14.4383 -9.19738 10.3485
rtibia 55.5401
rfoot 0.828742 15.1174
rtoes -20.3156
lfemur -6.39248 11.293 -13.7128
ltibia 35.2164
lfoot -23.987 -13.3564
ltoes -4.92015
151
root 1.82835 16.765 2.37837 -9.61043 -5.98858 -3.92008
lowerback 9.33317 3.87294 4.15532
upperback 2.41298 5.53147 -0.175133
thorax -2.29316 2.74633 -3.1012
lowerneck -14.8899 -6.49123 -8.80252
upperneck 20.3438 -9.43145 10.8157
head 9.86101 -3.93492 3.98266
rclavicle -4.78388e-014 3.97569e-015
rhumerus -31.1808 27.985 -95.6133
rradius 69.6616
rwrist 28.3677
rhand -41.4087 -18.5133
rfingers 7.12502
rthumb -14.3254 -47.9991
lclavicle -4.78388e-014 3.97569e-015
lhumerus -44.6432 -7.21378 74.8178
lradius 15.4344
lwrist -27.3482
lhand -38.0851 7.16571
lfingers 7.12502
lthumb -11.1213 36.851
rfemur 12.8153 -9.77928 10.1536
rtibia 57.7022
rfoot -0.117395 15.6163
rtoes -20.4854
lfemur -5.08351 11.0101 -13.5381
ltibia 34.5792
lfoot -24.3239 -13.393
ltoes -5.03099
152
root 1.83258 16.7755 2.5665 -9.80973 -5.53193 -3.90926
lowerback 9.41049 3.5692 3.87102
upperback 2.57785 5.10333 -0.077421
thorax -2.23358 2.53736 -2.80047
lowerneck -14.9351 -6.32695 -8.75952
upperneck 20.3389 -9.17213 10.6798
head 9.82862 -3.8247 3.96452
rclavicle 3.59117e-014 -1.35174e-014
rhumerus -32.677 27.931 -95.806
rradius 66.8783
rwrist 28.3197
rhand -41.2321 -18.1575
rfingers 7.12502
rthumb -14.1553 -47.6553
lclavicle 3.59117e-014 -1.35174e-014
lhumerus -43.0828 -7.40793 76.7985
lradius 15.7069
lwrist -28.72
lhand -38.8222 6.82811
lfingers 7.12502
lthumb -11.8322 36.4738
rfemur 11.1824 -10.4417 9.88784
rtibia 59.5824
rfoot -1.06798 16.2541
rtoes -19.6171
lfemur -3.89047 10.5316 -13.6023
ltibia 33.939
lfoot -24.5796 -13.3483
ltoes -5.20437
153
root 1.83259 16.7855 2.76572 -10.0048 -4.83769 -4.03928
lowerback 9.24438 3.16957 3.51798
upperback 2.82192 4.53356 0.131271
thorax -1.97626 2.26257 -2.31198
lowerneck -15.0322 -6.13328 -8.90938
upperneck 20.3311 -8.86981 10.7517
head 9.821 -3.68593 4.05813
rclavicle 8.46873e-014 -6.36111e-015
rhumerus -34.1854 27.9355 -95.7476
rradius 64.2162
rwrist 28.5418
rhand -41.0948 -17.6131
rfingers 7.12502
rthumb -14.023 -47.1201
lclavicle 8.46873e-014 -6.36111e-015
lhumerus -41.4538 -8.80233 79.6529
lradius 16.3041
lwrist -28.0356
lhand -39.2884 6.63101
lfingers 7.12502
lthumb -12.2818 36.2503
rfemur 9.72218 -11.3101 9.75908
rtibia 61.1315
rfoot -1.98239 17.3092
rtoes -19.5765
lfemur -2.71927 9.73314 -13.5712
ltibia 33.3678
lfoot -24.911 -13.2446
ltoes -5.23186
154
root 1.83341 16.7914 2.95171 -10.0825 -4.68585 -3.58006
lowerback 9.18625 3.06542 2.67893
upperback 2.98242 4.31471 0.150362
thorax -1.85692 2.15649 -1.79538
lowerneck -15.1951 -6.1992 -9.21145
upperneck 20.2886 -8.92365 10.966
head 9.8691 -3.70717 4.17379
rclavicle 3.33989e-014 -5.1684e-015
rhumerus -35.7193 27.6282 -95.6222
rradius 61.6164
rwrist 28.8985
rhand -40.4699 -16.6337
rfingers 7.12502
rthumb -13.4207 -46.1814
lclavicle 3.33989e-014 -5.1684e-015
lhumerus -39.4101 -9.1368 81.5315
lradius 16.7045
lwrist -29.1666
lhand -39.9276 6.79154
lfingers 7.12502
lthumb -12.898 36.373
rfemur 7.78536 -11.5281 9.20113
rtibia 62.5279
rfoot -3.18446 17.9425
rtoes -19.9196
lfemur -1.67016 9.38403 -14.1685
ltibia 32.811
lfoot -25.2697 -12.868
ltoes -5.27504
155
root 1.83591 16.792 3.1368 -10.3212 -3.92517 -3.87926
lowerback 9.34019 2.69124 2.56521
upperback 3.16536 3.81502 0.392444
thorax -1.80086 1.90875 -1.43594
lowerneck -15.1844 -6.14523 -9.33127
upperneck 20.1847 -8.80847 10.9711
head 9.82291 -3.6646 4.21111
rclavicle 4.66026e-014 -3.57812e-015
rhumerus -37.1826 27.0067 -95.4116
rradius 59.2109
rwrist 27.9004
rhand -40.0221 -15.7327
rfingers 7.12502
rthumb -12.9891 -45.3083
lclavicle 4.66026e-014 -3.57812e-015
lhumerus -37.6127 -10.5399 84.0031
lradius 17.6483
lwrist -28.1573
lhand -40.2007 6.32863
lfingers 7.12502
lthumb -13.1613 35.8932
rfemur 6.34057 -12.4949 9.36338
rtibia 63.635
rfoot -4.51233 18.6235
rtoes -18.6044
lfemur -0.517552 8.64179 -13.9365
ltibia 32.2862
lfoot -25.7281 -12.8548
ltoes -5.53044
156
root 1.83121 16.7957 3.31774 -10.4341 -3.59105 -3.95928
lowerback 9.41199 2.46866 2.18563
upperback 3.33588 3.4876 0.534808
thorax -1.70977 1.74621 -1.04311
lowerneck -15.4351 -6.06786 -9.55379
upperneck 20.3359 -8.6827 11.1576
head 9.929 -3.59365 4.33316
rclavicle -3.61291e-014 8.74653e-015
rhumerus -38.382 25.7936 -95.034
rradius 56.4557
rwrist 28.6241
rhand -39.4955 -15.3248
rfingers 7.12502
rthumb -12.4814 -44.932
lclavicle -3.61291e-014 8.74653e-015
lhumerus -35.5699 -11.7097 85.9775
lradius 18.5337
lwrist -27.8726
lhand -40.8407 6.57418
lfingers 7.12502
lthumb -13.7781 36.0979
rfemur 4.52409 -13.0437 9.52802
rtibia 64.5818
rfoot -5.77776 18.7088
rtoes -18.4967
lfemur 0.513668 8.0868 -13.922
ltibia 31.7989
lfoot -26.1081 -12.5308
ltoes -5.51068
